<svg width="96" height="25" viewBox="0 0 96 25" fill="none" xmlns="http://www.w3.org/2000/svg">
<path d="M0.694444 0.78125C1.04167 0.260417 1.64931 0 2.34375 0H10.2431C11.8056 0 13.1944 0.347222 14.4097 1.04167C15.625 1.73611 16.6667 2.69097 17.4479 3.99306C18.2292 5.29514 18.5764 6.85764 18.5764 8.68056C18.5764 10.4167 18.1424 11.8924 17.4479 13.1944C16.6667 14.4965 15.625 15.4514 14.3229 16.059C13.0208 16.6667 11.6319 17.0139 10.1562 17.0139H4.51389V16.5799C4.51389 17.8819 4.34028 18.5764 3.90625 19.0104C3.47222 19.4444 2.95139 19.6181 2.34375 19.6181C1.73611 19.6181 1.21528 19.4444 0.694444 18.9236C0.260417 18.5764 0 18.0556 0 17.3611V2.34375C0 1.73611 0.173611 1.21528 0.694444 0.78125ZM4.51389 12.8472H10.2431C11.0243 12.8472 11.7188 12.6736 12.3264 12.2396C12.934 11.8056 13.4549 11.3715 13.8021 10.6771C14.1493 10.0694 14.3229 9.375 14.3229 8.68056C14.3229 7.46528 13.8889 6.42361 13.1076 5.55556C12.3264 4.6875 11.3715 4.25347 10.2431 4.25347H4.51389V12.8472Z" fill="#252528"/>
<path d="M79.0798 2.08333C79.0798 1.47569 79.2534 1.04167 79.6875 0.607639C80.1215 0.173611 80.6423 0 81.25 0C81.7708 0 82.2916 0.173611 82.6389 0.607639C82.9861 1.04167 83.2465 1.47569 83.2465 2.08333V20.4861H87.5868C88.368 20.4861 88.9757 20.7465 89.4097 21.1806C89.8437 21.6146 90.1041 22.1354 90.1041 22.7431C90.1041 23.3507 89.8437 23.8715 89.4097 24.3056C88.9757 24.7396 88.368 25 87.5868 25H81.25C80.6423 25 80.1215 24.8264 79.6875 24.3924C79.2534 23.9583 79.0798 23.5243 79.0798 22.9167V2.08333Z" fill="#252528"/>
<path d="M74.0451 7.20488C74.0451 8.42016 73.0903 9.46183 71.7882 9.46183C70.4861 9.46183 69.5312 8.50697 69.5312 7.20488C69.5312 5.9028 70.4861 4.94794 71.7882 4.94794C73.0903 4.94794 74.0451 5.9896 74.0451 7.20488Z" fill="#4E7DF6"/>
<path d="M4.51389 22.5694C4.51389 23.7847 3.47222 24.8264 2.25694 24.8264C1.04167 24.8264 0 23.8715 0 22.5694C0 21.3542 1.04167 20.3125 2.25694 20.3125C3.47222 20.3125 4.51389 21.3542 4.51389 22.5694Z" fill="#9546F4"/>
<path d="M94.5312 24.2187C93.6631 25.0868 92.2742 25.0868 91.4062 24.2187C90.5381 23.3507 90.5381 21.9618 91.4062 21.0937C92.2742 20.2257 93.6631 20.2257 94.5312 21.0937C95.3992 21.9618 95.3992 23.3507 94.5312 24.2187Z" fill="#70C9FF"/>
<path d="M46.1806 9.72225C46.1806 10.9375 45.2258 11.9792 44.0105 11.9792C42.7952 11.9792 41.8403 11.0243 41.8403 9.72225C41.8403 8.42016 42.7952 7.4653 44.0105 7.4653C45.2258 7.4653 46.1806 8.50697 46.1806 9.72225Z" fill="#8A5FF6"/>
<path d="M46.3541 14.7569C46.3541 14.6701 46.3541 14.6701 46.3541 14.7569C46.3541 14.6701 46.3541 14.6701 46.3541 14.7569C46.2673 13.5417 45.5729 12.4132 44.0972 12.5C42.7083 12.5 42.0138 13.4548 41.8402 14.4965C41.6666 15.4514 41.3194 16.2326 40.7985 17.0139C40.0173 18.2292 38.9756 19.184 37.7604 19.7917C36.5451 20.3993 35.243 20.7465 33.8541 20.7465C32.552 20.7465 31.2499 20.3993 30.0347 19.7917C28.8194 19.184 27.7777 18.2292 26.9965 17.0139C26.2152 15.7986 25.868 14.3229 25.868 12.5868C25.868 10.8507 26.302 9.37499 26.9965 8.15971C27.6909 6.94443 28.7326 5.98957 30.0347 5.38193C31.2499 4.77429 32.552 4.42707 33.8541 4.42707C35.243 4.42707 36.5451 4.68749 37.7604 5.38193C38.5416 5.72915 39.1492 6.24999 39.7569 6.85763C40.1041 7.29165 40.6249 7.55207 41.4062 7.55207C43.6631 7.55207 44.184 4.77429 42.8819 3.64582L42.7951 3.55901C42.0138 2.86457 41.2326 2.25693 40.2777 1.7361C38.368 0.781236 36.4583 0.173598 34.3749 0.086792C32.2048 0.086792 30.1215 0.607625 28.1249 1.47568C26.1284 2.34374 24.5659 3.81943 23.3506 5.72915C22.1353 7.63888 21.5277 9.89582 21.5277 12.5868C21.5277 15.2778 22.1353 17.5347 23.3506 19.4444C24.5659 21.3542 26.2152 22.743 28.1249 23.6979C30.1215 24.6528 32.2048 25 34.3749 24.9132C36.4583 24.9132 38.4548 24.4792 40.2777 23.5243C42.1006 22.5694 43.6631 21.1805 44.7916 19.2708C45.486 18.2292 45.9201 17.1007 46.1805 15.7986C46.2673 15.4514 46.3541 15.1042 46.3541 14.7569Z" fill="#252528"/>
<path d="M75 11.8056C75 11.7188 75 11.7188 75 11.8056C75 11.7188 75 11.7188 75 11.8056C74.6528 10.6771 73.6979 9.72223 72.309 10.1563C71.0069 10.4167 70.4861 11.5451 70.5729 12.5868C70.5729 13.5417 70.4861 14.4097 70.2257 15.2778C69.7049 16.6667 69.0104 17.7951 67.8819 18.6632C66.7535 19.5313 65.625 20.1389 64.3229 20.4861C63.0208 20.8333 61.7188 20.8333 60.4167 20.4861C59.1146 20.1389 57.8993 19.5313 56.8576 18.4896C55.816 17.4479 55.1215 16.1458 54.6875 14.4965C54.2535 12.8472 54.3403 11.2847 54.7743 9.98265C55.2083 8.59376 55.9896 7.46529 57.0312 6.59723C58.0729 5.72918 59.2882 5.12154 60.5035 4.77432C61.8056 4.42709 63.1944 4.42709 64.4965 4.77432C65.3646 4.86112 66.1458 5.20834 66.8403 5.64237C67.2743 5.98959 67.8819 6.0764 68.5764 5.90279C70.7465 5.38195 70.5729 2.60418 69.0972 1.73612C69.0104 1.73612 69.0104 1.64932 68.9236 1.64932C68.0556 1.12848 67.1007 0.78126 66.059 0.520844C63.9757 1.01738e-05 61.8924 -0.0867954 59.8958 0.260427C57.8125 0.78126 55.816 1.73612 54.1667 3.12501C52.4306 4.5139 51.2153 6.25001 50.5208 8.42015C49.7396 10.5035 49.6528 12.934 50.3472 15.4514C50.9549 18.0556 52.0833 20.1389 53.7326 21.7014C55.3819 23.2639 57.2917 24.2188 59.375 24.6528C61.4583 25.0868 63.6285 25 65.7118 24.3924C67.7083 23.8715 69.5313 23.0035 71.0938 21.6146C72.6563 20.2257 73.8715 18.4896 74.566 16.4063C74.9132 15.2778 75.1736 14.0625 75.1736 12.7604C75.1736 12.5 75.1736 12.066 75 11.8056Z" fill="#252528"/>
</svg>
